<svg 
 xmlns="http://www.w3.org/2000/svg"
 xmlns:xlink="http://www.w3.org/1999/xlink"
 width="105.115px" height="108.115px">
<path fill-rule="evenodd"  stroke="rgb(0, 0, 0)" stroke-width="7.41px" stroke-linecap="butt" stroke-linejoin="miter" fill="rgb(246, 57, 57)"
 d="M92.705,31.705 C91.131,38.322 51.705,83.705 51.705,83.705 L53.705,64.705 L66.705,58.705 L57.705,48.705 L68.705,38.705 L61.705,27.705 C61.705,27.705 52.279,19.888 55.705,15.705 C59.131,11.522 67.079,10.288 80.705,10.705 C94.331,11.122 94.279,25.088 92.705,31.705 ZM36.705,49.705 L42.705,82.705 C42.705,82.705 10.731,33.722 8.705,24.705 C6.679,15.688 14.731,10.122 20.705,8.705 C26.679,7.288 33.731,7.322 38.705,12.705 C43.679,18.088 44.705,25.705 44.705,25.705 L36.705,32.705 L45.705,43.705 L36.705,49.705 Z"/>
</svg>